<svg xmlns="http://www.w3.org/2000/svg" viewBox="0 0 120 125" width="120" height="125"><title>forme_circle_icon</title><path fill="#FFFFFF" fill-rule="evenodd" d="M47,9 L46,10 L42,10 L41,11 L39,11 L38,12 L37,12 L36,13 L34,13 L32,15 L29,16 L27,18 L26,18 L24,20 L23,20 L14,29 L14,30 L12,32 L12,33 L11,34 L10,37 L8,39 L8,41 L6,44 L6,46 L5,47 L5,50 L4,51 L4,57 L3,58 L3,65 L4,66 L4,72 L5,73 L5,76 L6,77 L6,80 L7,81 L7,82 L8,83 L8,84 L9,85 L9,86 L10,87 L11,90 L13,92 L13,93 L16,96 L16,97 L22,103 L23,103 L26,106 L29,107 L31,109 L32,109 L33,110 L34,110 L37,112 L39,112 L40,113 L42,113 L43,114 L47,114 L48,115 L65,115 L66,114 L70,114 L71,113 L73,113 L74,112 L76,112 L77,111 L78,111 L79,110 L82,109 L84,107 L85,107 L87,105 L88,105 L90,103 L91,103 L97,97 L97,96 L100,93 L100,92 L102,90 L102,89 L103,88 L103,87 L104,86 L104,85 L106,82 L106,80 L107,79 L107,77 L108,76 L108,73 L109,72 L109,66 L110,65 L110,59 L109,58 L109,51 L108,50 L108,47 L107,46 L107,44 L105,41 L105,39 L104,38 L104,37 L102,35 L102,34 L100,32 L100,31 L98,29 L98,28 L90,20 L89,20 L84,16 L81,15 L79,13 L77,13 L74,11 L71,11 L70,10 L67,10 L66,9 Z M51,11 L63,11 L64,12 L68,12 L69,13 L71,13 L72,14 L74,14 L75,15 L76,15 L77,16 L78,16 L79,17 L80,17 L81,18 L84,19 L87,22 L88,22 L97,31 L97,32 L99,34 L100,37 L102,39 L102,40 L103,41 L103,43 L105,46 L105,49 L106,50 L106,54 L107,55 L107,69 L106,70 L106,74 L105,75 L105,77 L104,78 L104,80 L103,81 L103,82 L102,83 L102,84 L101,85 L100,88 L98,90 L98,91 L95,94 L95,95 L89,101 L88,101 L85,104 L84,104 L82,106 L81,106 L80,107 L79,107 L78,108 L77,108 L74,110 L72,110 L71,111 L68,111 L67,112 L63,112 L62,113 L51,113 L50,112 L46,112 L45,111 L42,111 L41,110 L39,110 L38,109 L37,109 L36,108 L35,108 L34,107 L31,106 L29,104 L28,104 L25,101 L24,101 L17,94 L17,93 L13,88 L13,87 L12,86 L12,85 L11,84 L11,83 L9,80 L9,78 L8,77 L8,75 L7,74 L7,70 L6,69 L6,54 L7,53 L7,49 L8,48 L8,46 L9,45 L9,44 L11,41 L11,39 L12,38 L12,37 L14,35 L14,34 L16,32 L16,31 L26,21 L27,21 L29,19 L32,18 L34,16 L35,16 L36,15 L38,15 L39,14 L41,14 L42,13 L44,13 L45,12 L50,12 Z M31,81 L34,81 L35,80 L35,77 L36,76 L35,75 L36,74 L35,73 L36,72 L35,71 L35,70 L36,69 L35,68 L37,66 L72,66 L74,64 L74,63 L75,62 L74,61 L37,61 L35,59 L35,55 L36,54 L36,53 L40,49 L41,49 L42,48 L83,48 L85,45 L85,43 L42,43 L41,44 L39,44 L38,45 L37,45 L33,49 L33,50 L31,53 Z"/></svg>